<svg xmlns="http://www.w3.org/2000/svg" width="100" height="100" viewBox="0 0 100 100">
    <g fill="none" fill-rule="evenodd">
        <g>
            <g transform="translate(-134 -476) translate(134 476)">
                <circle cx="50" cy="50" r="50" fill="#008DC9"/>
                <path fill="#FFF" d="M21.653 33.386c1.253 1.617.658 7.318 1.314 10.505.656 3.186 2.029 7.824 5.14 9.71 3.11 1.886 7.143 3.01 10.484 2.138 3.34-.871 8.206-3.23 10.31-2.757 2.103.473 3.834 3.293 4.368 6.089.533 2.795 4.078 9.184 7.199 11.072C63.588 72.03 64.874 73 68.61 73c3.737 0 7.656-1.586 9.465-4.44C79.885 65.709 81 64.69 81 60.543c0-4.146-1.74-7.817-4.436-9.605-2.696-1.788-6.718-1.672-8.749-1.075-2.031.597-3.759 1.764-4.69 3.12-.93 1.356-1.386 1.84-.623 2.757.763.917 2.177-.01 3.282-.917 1.105-.906 4.755-2.316 6.263-1.84 1.508.475 3.453.934 3.453 6.089 0 5.154-2.766 7.59-6.24 7.59-3.476 0-7.766-3.342-9.57-7.59-1.805-4.249-3.928-9.873-6.903-11.318-2.975-1.445-5.254-2.11-8.643 0-3.389 2.109-5.477 3.048-8.112 2.109-2.635-.94-6.928-3.029-6.928-7.195s-.11-6.338-.998-9.281c-.887-2.944-2.243-4.628-3.833-5.633-1.59-1.004-3.469-1.004-4.85 0-1.38 1.807.952 4.155 2.23 5.633z"/>
            </g>
        </g>
    </g>
</svg>
