<svg xmlns="http://www.w3.org/2000/svg" width="20" height="20" viewBox="0 0 20 20">
    <g fill="none" fill-rule="evenodd">
        <g stroke="#008DC9">
            <g>
                <path fill-rule="nonzero" d="M17.5 0l-.16.03L12 2.1 6 0 .36 1.9c-.21.07-.36.25-.36.48V17.5c0 .28.22.5.5.5l.16-.03L6 15.9l6 2.1 5.64-1.9c.21-.07.36-.25.36-.48V.5c0-.28-.22-.5-.5-.5z" transform="translate(-996 -382) translate(997 383)"/>
                <path stroke-linecap="square" d="M5.5.5L5.5 15.5M11.5 2.5L11.5 17.5" transform="translate(-996 -382) translate(997 383)"/>
            </g>
        </g>
    </g>
</svg>
