<svg xmlns="http://www.w3.org/2000/svg" width="80" height="80" viewBox="0 0 80 80">
    <g fill="none" fill-rule="evenodd">
        <g>
            <g>
                <path d="M0 0H80V80H0z" transform="translate(-104 -219) translate(104 219)"/>
                <g fill="#008DC9" fill-rule="nonzero">
                    <path d="M66.667 0c-4.834 0-7.534 4.8-6.434 8.367L48.4 20.233c-1-.3-2.467-.3-3.467 0l-8.5-8.5c1.134-3.566-1.566-8.4-6.433-8.4-4.833 0-7.567 4.8-6.433 8.4L8.367 26.9C4.8 25.8 0 28.5 0 33.333 0 37 3 40 6.667 40c4.833 0 7.533-4.8 6.433-8.367l15.167-15.2c1 .3 2.466.3 3.466 0l8.5 8.5c-1.133 3.567 1.567 8.4 6.434 8.4 4.833 0 7.566-4.8 6.433-8.4L64.967 13.1c3.566 1.1 8.366-1.6 8.366-6.433C73.333 3 70.333 0 66.667 0z" transform="translate(-104 -219) translate(104 219) translate(3.333 26.667)"/>
                </g>
            </g>
        </g>
    </g>
</svg>
