<svg xmlns="http://www.w3.org/2000/svg" width="100" height="100" viewBox="0 0 100 100">
    <g fill="none" fill-rule="evenodd">
        <g>
            <g transform="translate(-267 -613) translate(267 613)">
                <circle cx="50" cy="50" r="50" fill="#2C3F4D"/>
                <path fill="#FFF" d="M18.066 59.487c.98 3.634 6.82 6.383 12.019 5.617 5.199-.767 11.376-4.741 12.487-7.44 1.112-2.697 1.338-3.524 2.277-4.175.94-.65 2.605-1.03 4.201-.594 1.596.436 2.597 1.086 4.186 1.086s4.257-.443 5.882-2.53c1.625-2.089 2.686-2.916 2.71-4.235.025-1.32.025-3.193 1.874-3.193 1.849 0 4.051 1.271 6.452 1.271s3.935-1.998 5.7-1.998c1.764 0 3.043.727 4.584.727 1.54 0 3.837.062 6.03-.727 1.462-.527 3.266-1.557 5.41-3.092-3.888.463-6.891.695-9.01.695-3.176 0-4.466.076-5.176-.695-.71-.772-1.176-2.404-.588-4.08.588-1.678.656-1.666 1.547-3.611.595-1.297 1.19-3.724 1.787-7.28-2.912 2.77-4.785 5.197-5.62 7.28-1.25 3.123-1.127 6.995-2.033 7.69-.905.696-1.278 1.185-2.63 1.185-1.354 0-4.165-1.96-6.453-1.96-2.288 0-3.508.776-4.584 3.033-1.077 2.257-1.666 5.444-4.146 6.35-2.479.905-3.843-.59-5.922-.59-2.079 0-3.465 1.491-5.019 1.491-1.554 0-2.554-1.886-4.935-2.496-2.38-.61-7.606-1.14-13.355 1.594-5.748 2.735-8.655 7.043-7.675 10.677z"/>
            </g>
        </g>
    </g>
</svg>
