<svg xmlns="http://www.w3.org/2000/svg" width="100" height="100" viewBox="0 0 100 100">
    <g fill="none" fill-rule="evenodd">
        <g>
            <g transform="translate(-134 -882) translate(134 882)">
                <circle cx="50" cy="50" r="50" fill="#008DC9"/>
                <path fill="#FFF" stroke="#FFF" d="M67.083 69.278c-1.007-1.227-3.015-1.742-4.5-.871-1.486.871-3.691 4.327-10.376 4.327S38.063 65.6 35.857 61.718c-2.207-3.882-4.126-8.567-4.126-13.501 0-4.934.523-5.619 1.92-9.685 1.396-4.066 8.045-12.115 9.273-12.758 1.229-.642 3.007-.934 4.121-.716 1.115.218 2.139.218 2.744 1.518.605 1.3-.605 10.037-2.215 14.115-1.61 4.077-5.2 9.309-6.328 9.589-1.128.28-2.841-.141-3.362-.98-.52-.837-1.064-1.522-1.064-3.99 0-2.47 1.945-6.09 2.79-6.778.843-.688 2.354-2.273 4.482-1.48 2.129.792 5.14 5.643 6.23 7.341 1.09 1.699 1.95 2.606 3.652 3.824 1.702 1.218 4.31 4.414 7.882 4.414 3.571 0 7.477-4.541 7.477-7.322 0-2.78-.983-6.249-3.103-9.166-2.12-2.916-4.214-4.065-5.645-4.065-1.43 0-3.775.912-3.775 2.355s.63 5.399 2.234 8.882c1.605 3.484 2.09 4.352 3.538 5.148 1.449.796 5.308 1.817 7.398.838 2.09-.98 2.757-4.552 2.757-5.986 0-1.433-1.043-3.511-1.931-6.264-.889-2.752 1.048-4.973 1.931-4.973.884 0 1.844 1.21 1.844 2.355s.919.859.919-.748-2.195-2.818-2.763-2.818c-.567 0-2.191 1.461-2.757 2.818-.565 1.357 1.387 6.374 1.387 7.006 0 .63.594 4.618 0 5.382-.594.765-.561 4.207-5.137 3.228-4.576-.98-5.891-3.944-7.186-7.037-1.294-3.093-2.053-8.58-.76-9.3 1.295-.72 2.936-.886 4.298 0 1.363.886 3.928 4.142 4.5 6.256.573 2.113 2.268 4.71 1.42 6.853-.847 2.144-5.091 5.967-7.368 5.425-2.277-.542-10.347-5.595-11.345-9.234-1-3.64-2.744-7.15-5.697-7.83-2.953-.682-4.483.68-6.208 2.617-1.725 1.937-4.092 7.46-3.472 10.616.62 3.155 2.233 5.568 6.13 5.568s6.417-4.61 7.032-6.204c.615-1.594 3.984-9.952 4.633-13.346.65-3.395 1.767-7.109 0-9.487C50.44 21.819 47.892 21 45.522 21c-2.37 0-9.541 1.623-13.79 8.194-4.25 6.57-5.362 10.951-6.154 18.473-.792 7.522 4.665 18.363 6.84 21.611C34.593 72.527 40.44 79 51.148 79s16.942-8.494 15.935-9.722z"/>
            </g>
        </g>
    </g>
</svg>
