<svg xmlns="http://www.w3.org/2000/svg" width="100" height="100" viewBox="0 0 100 100">
    <g fill="none" fill-rule="evenodd">
        <g>
            <g transform="translate(-134 -1014) translate(134 1014)">
                <circle cx="50" cy="50" r="50" fill="#008DC9"/>
                <path fill="#FFF" d="M17.662 52.923c-.883-.585-.883 1.758 0 3.788.882 2.03 3.383 6.988 6.953 8.4 3.571 1.41 12.101 1.197 14.407 1.197C41.328 66.308 45.69 68 49.04 68c3.35 0 3.843-1.432 4.66-2.16.819-.73 1.55-2.327 1.945-4.251.396-1.925-.37-6.818.479-10.014.848-3.196 2.666-9.496 5.368-11.947 2.702-2.452 6.233-4.125 8.905-4.125 2.671 0 9.812 1.817 9.812 10.181 0 8.364-6.501 8.997-8.563 8.997-2.061 0-6.033-2.786-5.312-5.892.72-3.105.659-5.627 1.956-6.934 1.298-1.308.969-1.787.485-2.227-.485-.44-1.596-.247-2.441.769-.846 1.016-3.212 4.488-3.212 7.921 0 3.434.947 9.719 9.017 9.719S84 50.003 84 45.2C84 40.397 82.093 32 69.785 32S53.042 43.688 52.268 47.632c-.775 3.943-.793 10.438-.793 11.741 0 1.304-.637 3.163-1.735 3.812-1.099.649-6.762-.547-10.718-.547-3.956 0-7.902.547-9.963.547-2.06 0-4.891-1.516-5.9-2.827-1.007-1.311-4.615-6.85-5.497-7.435z"/>
            </g>
        </g>
    </g>
</svg>
