<svg xmlns="http://www.w3.org/2000/svg" width="100" height="100" viewBox="0 0 100 100">
    <g fill="none" fill-rule="evenodd">
        <g>
            <g transform="translate(-267 -1151) translate(267 1151)">
                <circle cx="50" cy="50" r="50" fill="#2C3F4D"/>
                <path fill="#FFF" d="M51.431 17c-1.02 0-2.053 1.78-2.053 3.883 0 2.102 0 2.491 1.026 3.757 1.027 1.267 11.735 9.596 10.615 20.739-1.119 11.143-3.007 13.894-4.814 17.15-1.204 2.17-6.868 7.071-16.99 14.7C35.74 80.44 34 82.31 34 82.84c0 .794 6.197-1.552 8.116-2.55 1.919-.997 8.596-5.338 13.414-9.743C60.35 66.141 66.38 59.173 65.981 46c-.397-13.173-6.745-18.372-9.418-20.506-2.673-2.134-4.509-2.768-4.509-4.196 0-1.429.773-1.947.773-2.685 0-.739-.375-1.612-1.396-1.612z"/>
            </g>
        </g>
    </g>
</svg>
