<svg xmlns="http://www.w3.org/2000/svg" width="100" height="100" viewBox="0 0 100 100">
    <g fill="none" fill-rule="evenodd">
        <g>
            <g transform="translate(-134 -750) translate(134 750)">
                <circle cx="50" cy="50" r="50" fill="#008DC9"/>
                <path d="M19 19L81 19 81 81 19 81z"/>
                <path fill="#FFF" fill-rule="nonzero" d="M49.5 30C36.545 30 25.482 38.293 21 50c4.482 11.707 15.545 20 28.5 20S73.518 61.707 78 50c-4.482-11.707-15.545-20-28.5-20zm0 33.333c-7.15 0-12.955-5.973-12.955-13.333S42.35 36.667 49.5 36.667c7.15 0 12.955 5.973 12.955 13.333S56.65 63.333 49.5 63.333zM49.5 42c-4.3 0-7.773 3.573-7.773 8s3.472 8 7.773 8c4.3 0 7.773-3.573 7.773-8S53.8 42 49.5 42z"/>
            </g>
        </g>
    </g>
</svg>
